<svg width="30" height="30" viewBox="0 0 30 30" fill="none" xmlns="http://www.w3.org/2000/svg">
<path d="M15 10.4999C14.7033 10.4999 14.4133 10.5878 14.1666 10.7526C13.92 10.9175 13.7277 11.1517 13.6142 11.4258C13.5006 11.6999 13.4709 12.0015 13.5288 12.2925C13.5867 12.5834 13.7296 12.8507 13.9393 13.0605C14.1491 13.2703 14.4164 13.4131 14.7074 13.471C14.9983 13.5289 15.2999 13.4992 15.574 13.3856C15.8481 13.2721 16.0824 13.0798 16.2472 12.8332C16.412 12.5865 16.5 12.2965 16.5 11.9998C16.5 11.602 16.342 11.2205 16.0607 10.9392C15.7794 10.6579 15.3978 10.4999 15 10.4999ZM25.5 0H4.5C3.30653 0 2.16193 0.474099 1.31802 1.318C0.474106 2.1619 0 3.30648 0 4.49994V19.4997C0 20.6932 0.474106 21.8378 1.31802 22.6817C2.16193 23.5256 3.30653 23.9997 4.5 23.9997H21.885L27.435 29.5646C27.5752 29.7036 27.7414 29.8136 27.9241 29.8882C28.1069 29.9629 28.3026 30.0007 28.5 29.9996C28.6968 30.0047 28.892 29.9636 29.07 29.8796C29.3439 29.7671 29.5784 29.576 29.7439 29.3304C29.9094 29.0848 29.9985 28.7957 30 28.4996V4.49994C30 3.30648 29.5259 2.1619 28.682 1.318C27.8381 0.474099 26.6935 0 25.5 0ZM27 24.8847L23.565 21.4347C23.4248 21.2957 23.2586 21.1857 23.0759 21.111C22.8931 21.0364 22.6974 20.9986 22.5 20.9997H4.5C4.10218 20.9997 3.72064 20.8417 3.43934 20.5604C3.15804 20.2791 3 19.8975 3 19.4997V4.49994C3 4.10212 3.15804 3.72059 3.43934 3.43929C3.72064 3.15799 4.10218 2.99996 4.5 2.99996H25.5C25.8978 2.99996 26.2794 3.15799 26.5607 3.43929C26.842 3.72059 27 4.10212 27 4.49994V24.8847ZM9 10.4999C8.70333 10.4999 8.41332 10.5878 8.16665 10.7526C7.91997 10.9175 7.72771 11.1517 7.61418 11.4258C7.50065 11.6999 7.47094 12.0015 7.52882 12.2925C7.5867 12.5834 7.72956 12.8507 7.93934 13.0605C8.14912 13.2703 8.41639 13.4131 8.70737 13.471C8.99834 13.5289 9.29994 13.4992 9.57403 13.3856C9.84811 13.2721 10.0824 13.0798 10.2472 12.8332C10.412 12.5865 10.5 12.2965 10.5 11.9998C10.5 11.602 10.342 11.2205 10.0607 10.9392C9.77936 10.6579 9.39782 10.4999 9 10.4999ZM21 10.4999C20.7033 10.4999 20.4133 10.5878 20.1666 10.7526C19.92 10.9175 19.7277 11.1517 19.6142 11.4258C19.5006 11.6999 19.4709 12.0015 19.5288 12.2925C19.5867 12.5834 19.7296 12.8507 19.9393 13.0605C20.1491 13.2703 20.4164 13.4131 20.7074 13.471C20.9983 13.5289 21.2999 13.4992 21.574 13.3856C21.8481 13.2721 22.0824 13.0798 22.2472 12.8332C22.412 12.5865 22.5 12.2965 22.5 11.9998C22.5 11.602 22.342 11.2205 22.0607 10.9392C21.7794 10.6579 21.3978 10.4999 21 10.4999Z" fill="#818181"/>
</svg>
